<svg xmlns="http://www.w3.org/2000/svg" viewBox="0 0 60 60">
  <defs>
    <style>
      .cls-1 {
        fill: red;
      }
    </style>
  </defs>
  <g id="Ebene_2" data-name="Ebene 2">
    <g id="LOGO">
      <path class="cls-1" d="M27.31,14l-7.26-3.2-6.93,4.89,13.11.81,9.46,6.06L28,15.08Zm3,17.46a29.81,29.81,0,0,1-9.86-5L0,38.18v6.75L23.57,31.35A32.34,32.34,0,0,0,30.28,31.42ZM16.72,40.77,0,51v6.86L19.77,45.77ZM6.36,21.17,0,25.05v6.86l16.4-10ZM52.31,0H41.07L32.48,5.24l6.32,3ZM19.9,0,0,12.23v6.86L31.08,0ZM0,0V6.42L10.52,0ZM38.15,14.21l4.31,4.26L60,8.19V1.41ZM50.88,26.79l1,1c-.52-.14-11.86.89-11.86.89.37.67,6.87,3.59,7.7,5.81,1,2.7-.26,4.59-1.74,6a22.39,22.39,0,0,1-7.76,3.4c-.79.19-5.79,1.37-7.78-1.54-.08-.11-.14-.22-.21-.33l-.11.12a9.55,9.55,0,0,0,.09,3.5L6.56,60H17.79l14.68-9a4.61,4.61,0,0,1-1.3-2.27,7.08,7.08,0,0,0,5.17-.1h0A21.66,21.66,0,0,0,41,46.12c1.81-1.21,5.73-1.78,5.69,3.11s-1.81,6.41-1.81,6.41c-.35-1.84-3.78-2.61-5.55-2.57L27.91,60H39.15l5.23-3.19a3.81,3.81,0,0,1,1.34,2,13.13,13.13,0,0,0,2.84-4.57l11.44-7V40.43L49.29,47a18.45,18.45,0,0,0-.66-3,6.43,6.43,0,0,1-.27-2.59L60,34.25V27.4l-6.1,3.72L55,29.26l-3.22-3,8.23-5V14.37L46.59,22.55ZM60,60V53.46L49.27,60Z"/>
    </g>
  </g>
</svg>
