<?xml version="1.0" encoding="UTF-8" standalone="no"?>
<!-- Generator: Adobe Illustrator 26.0.3, SVG Export Plug-In . SVG Version: 6.00 Build 0)  -->

<svg
   version="1.1"
   x="0px"
   y="0px"
   viewBox="0 0 60 60.026764"
   xml:space="preserve"
   id="svg843"
   sodipodi:docname="redicon.svg"
   width="60"
   height="60.026764"
   inkscape:version="1.1.1 (c3084ef, 2021-09-22)"
   xmlns:inkscape="http://www.inkscape.org/namespaces/inkscape"
   xmlns:sodipodi="http://sodipodi.sourceforge.net/DTD/sodipodi-0.dtd"
   xmlns="http://www.w3.org/2000/svg"
   xmlns:svg="http://www.w3.org/2000/svg"><defs
   id="defs847" /><sodipodi:namedview
   id="namedview845"
   pagecolor="#ffffff"
   bordercolor="#666666"
   borderopacity="1.0"
   inkscape:pageshadow="2"
   inkscape:pageopacity="0.0"
   inkscape:pagecheckerboard="0"
   showgrid="false"
   fit-margin-top="0"
   fit-margin-left="0"
   fit-margin-right="0"
   fit-margin-bottom="0"
   inkscape:zoom="0.56659197"
   inkscape:cx="39.711117"
   inkscape:cy="269.15313"
   inkscape:window-width="1383"
   inkscape:window-height="847"
   inkscape:window-x="0"
   inkscape:window-y="25"
   inkscape:window-maximized="0"
   inkscape:current-layer="svg843" />
<style
   type="text/css"
   id="style824">
	.st0{fill:#FFFFFF;}
	.st1{fill:none;}
	.st2{font-family:'Montserrat-SemiBold';}
	.st3{font-size:66.5892px;}
	.st4{font-size:33.2946px;}
	.st5{fill:#FF0000;}
</style>
<rect
   style="fill:#ffffff;stroke-width:0.44871;stroke-linecap:round"
   id="rect2257"
   width="60"
   height="60"
   x="7.3117967e-06"
   y="0.013381349" /><g
   id="LOGO"
   transform="matrix(0.2676182,0,0,0.2676182,-126.55665,-58.180197)">
	<path
   class="st5"
   d="m 575,269.6 -27.1,-12 -25.9,18.3 49,3 35.4,22.7 -28.8,-27.8 z m 11,65.2 c -20.7,-5.7 -36,-18.1 -36.8,-18.7 l -76.3,44 v 25.2 L 561,334.5 c 9.7,1 18.2,1 25,0.3 z m -50.6,34.9 -62.5,38.1 v 25.6 l 73.9,-45.1 z M 496.7,296.5 472.9,311 v 25.6 l 61.3,-37.4 z m 171.7,-79.1 h -42 l -32.1,19.6 23.6,11.2 z m -121.1,0 -74.4,45.7 v 25.7 L 589,217.4 Z m -74.4,0 v 24 l 39.3,-24 z m 142.6,53.1 16.1,15.9 65.5,-38.4 v -25.3 z m 47.5,47 3.7,3.7 c -2,-0.5 -44.3,3.3 -44.3,3.3 1.4,2.5 25.7,13.4 28.8,21.7 3.8,10.1 -1,17.1 -6.5,22.2 -2.7,2.5 -14.2,9 -29,12.7 -3,0.7 -21.6,5.1 -29.1,-5.7 -0.3,-0.4 -0.5,-0.8 -0.8,-1.2 -0.1,0.2 -0.3,0.3 -0.4,0.5 -0.7,4.5 -0.6,8.8 0.3,13.1 l -88.3,53.9 h 42 l 54.8,-33.5 c -2.2,-2.1 -3.9,-4.8 -4.9,-8.5 6.6,2.7 13.3,1.8 19.3,-0.4 v 0 c 7.1,-2.6 13.3,-7 17.2,-9.5 6.8,-4.5 21.4,-6.7 21.3,11.6 -0.2,18.3 -6.8,24 -6.8,24 -1.3,-6.9 -14.1,-9.7 -20.7,-9.6 l -42.5,25.9 h 42 l 19.5,-11.9 c 2.6,2 4.2,4.7 5,7.6 4.3,-4.4 8,-10.2 10.6,-17.1 L 697,394.2 V 368.6 L 657,393 c -0.5,-3.6 -1.3,-7.4 -2.5,-11.3 -1.1,-3.5 -1.3,-6.7 -1,-9.7 L 697,345.5 v -25.6 l -22.8,13.9 4.1,-6.9 -12,-11.3 30.7,-18.8 v -25.6 l -50,30.5 z m 34.1,124.1 V 417.1 L 657,441.6 Z"
   id="path840" />
</g><g
   id="LAYER_01"
   transform="translate(-467.60519,-148.5674)">
</g>




</svg>
